Motion_pl10
version=1
nRows=10
nColumns=43
inDegrees=yes
endheader
time	pelvis_tilt	pelvis_list	pelvis_rotation	pelvis_tx	pelvis_ty	pelvis_tz	hip_flexion_r	hip_adduction_r	hip_rotation_r	knee_angle_r	ankle_angle_r	subtalar_angle_r	mtp_angle_r	hip_flexion_l	hip_adduction_l	hip_rotation_l	knee_angle_l	ankle_angle_l	subtalar_angle_l	mtp_angle_l	lumbar_extension	lumbar_bending	lumbar_rotation	neck_flexion	neck_lateral_bending	neck_rotation	arm_flex_r	arm_add_r	arm_rot_r	elbow_flex_r	pro_sup_r	wrist_flex_r	wrist_dev_r	hand_finger_flex_r	arm_flex_l	arm_add_l	arm_rot_l	elbow_flex_l	pro_sup_l	wrist_flex_l	wrist_dev_l	hand_finger_flex_l
      0.49250000	      1.59733908	      3.27951144	     84.54803093	      0.02802800	      1.36014709	      0.85127704	     29.79692373	     -0.69510702	     -6.43136211	    -33.94616770	    -20.24992021	      0.57291844	     -4.88110454	     33.75031021	    -10.16013607	     -8.69855165	    -30.77875556	    -28.39747329	      3.88630270	     14.08883421	    -39.97199215	     -0.19973379	      7.25231868	     -1.31994045	      1.74769319	     -3.16662666	    -40.06778679	    -30.00681451	    -28.33147097	     40.80501501	     98.20106287	     15.53412021	      0.54403678	    -10.05160791	    -36.68313535	    -29.91839248	      0.28942218	     47.44180020	    123.10916489	    -23.72327300	     -7.09587127	    -11.43743377
      0.49500000	      1.66667862	      3.78968129	     84.62576583	      0.02764626	      1.35314129	      0.84425166	     28.71204960	     -0.77055353	     -6.85098298	    -32.70642316	    -20.11763968	      1.00895295	     -5.32835566	     32.68680446	    -10.19371174	     -9.21424631	    -29.92066051	    -28.28521772	      4.38191613	     14.24427973	    -40.10651846	     -0.04931445	      7.24651328	     -1.96797634	      1.59961920	     -3.29286248	    -41.37030175	    -29.19670547	    -29.28582611	     40.69806409	     98.44960464	     15.37084761	      0.12737734	     -9.95754990	    -38.16550142	    -29.31632994	     -0.48094948	     47.40196726	    123.01506538	    -23.56935371	     -7.38427105	    -12.17194497
      0.49750000	      1.61506013	      3.80436306	     84.71863471	      0.02719342	      1.34487622	      0.83751734	     28.33601021	     -0.88273354	     -7.08183651	    -31.68544104	    -20.28315772	      1.08202377	     -5.44495185	     32.30930866	    -10.11290283	     -9.64223362	    -29.23058753	    -28.32764288	      4.43616590	     14.25320004	    -39.62502295	      0.05223525	      7.17158979	     -2.96012762	      1.45600754	     -3.27271308	    -42.75666758	    -28.58170606	    -29.72456352	     40.61028247	     98.30310096	     15.33661563	     -0.18391432	     -9.94604113	    -39.72602859	    -28.90631081	     -0.80347902	     47.45745106	    122.90629407	    -23.84617585	     -7.43560804	    -12.42369311
      0.50000000	      1.57564588	      3.87983526	     84.80014175	      0.02671228	      1.33675201	      0.83065028	     27.85896345	     -1.00041820	     -7.37275483	    -30.62873637	    -20.35432617	      1.28070885	     -5.54109579	     31.81753243	    -10.04298167	    -10.10413519	    -28.49768748	    -28.28491281	      4.64514870	     14.29374040	    -39.22031666	      0.15392082	      7.11621439	     -3.89110760	      1.34420231	     -3.32029509	    -44.04360930	    -27.86770549	    -30.32954766	     40.43667587	     98.10652842	     15.19656910	     -0.53611148	     -9.97575659	    -41.23016403	    -28.39242816	     -1.30335685	     47.48358582	    122.73826320	    -24.10383518	     -7.51951523	    -12.69642805
      0.50250000	      1.52610112	      3.98540567	     84.87748959	      0.02625121	      1.32863974	      0.82377081	     27.33185787	     -1.12942722	     -7.69785025	    -29.54188517	    -20.40200431	      1.54404769	     -5.60823859	     31.27939391	     -9.96472346	    -10.59441873	    -27.74796689	    -28.18354951	      4.93543901	     14.35326109	    -38.84988538	      0.23166773	      7.04741560	     -4.79042856	      1.23942889	     -3.37445120	    -45.25348535	    -27.12454563	    -30.96819276	     40.25860555	     97.88796039	     15.04694945	     -0.88347780	    -10.00880189	    -42.72346319	    -27.86278110	     -1.82690549	     47.53352396	    122.57438728	    -24.31612653	     -7.65754963	    -12.94848435
      0.50500000	      1.49912514	      4.52603041	     84.92319286	      0.02593150	      1.32145898	      0.81659492	     26.21554881	     -1.31484700	     -8.24829292	    -28.33024136	    -20.18529797	      2.30901922	     -5.62865876	     30.10232284	     -9.93508953	    -11.29794451	    -26.78907129	    -27.85769241	      5.84543369	     14.61733805	    -39.00963563	      0.24846771	      6.99580380	     -5.35257754	      1.20509355	     -3.49025621	    -46.23207531	    -26.26049848	    -31.88464003	     39.95516955	     97.84945401	     14.90000076	     -1.11351165	     -9.96418413	    -44.13438281	    -27.22464598	     -2.75821326	     47.53658046	    122.46152861	    -24.00297296	     -8.09777498	    -13.39355620
      0.50750000	      1.41883920	      4.53299632	     85.01084993	      0.02542671	      1.31303253	      0.80977403	     25.82258129	     -1.43021273	     -8.48457096	    -27.27062585	    -20.33389748	      2.41469453	     -5.64905552	     29.71978841	     -9.79920410	    -11.75416066	    -26.11143424	    -27.79233728	      5.92100868	     14.66327553	    -38.54093827	      0.32313994	      6.90172234	     -6.26971793	      1.04816831	     -3.44610589	    -47.39604216	    -25.56587642	    -32.40345181	     39.81858301	     97.63398874	     14.81573102	     -1.41017115	     -9.96983416	    -45.57677499	    -26.74485380	     -3.15128850	     47.62860702	    122.35932936	    -24.26782261	     -8.16005805	    -13.62000100
      0.51000000	      1.34079842	      4.57433724	     85.07299961	      0.02491573	      1.30467343	      0.80288491	     25.38776933	     -1.56959565	     -8.82965514	    -26.21625382	    -20.38862292	      2.69032170	     -5.61763856	     29.23642454	     -9.68192802	    -12.26284983	    -25.35052432	    -27.65625526	      6.21227653	     14.74084186	    -38.11935285	      0.37214002	      6.84875893	     -7.15506782	      0.98074201	     -3.46671469	    -48.41017877	    -24.77294711	    -33.11437453	     39.52918072	     97.35443655	     14.63256261	     -1.68205192	     -9.99420314	    -46.94137650	    -26.18178627	     -3.70586080	     47.68474137	    122.21649530	    -24.48518113	     -8.23929667	    -13.83984271
      0.51250000	      1.25960801	      4.64517296	     85.12572589	      0.02451778	      1.29632521	      0.79601966	     24.91014834	     -1.70501352	     -9.19479623	    -25.15443857	    -20.37972859	      3.06777388	     -5.53807132	     28.71247380	     -9.57473667	    -12.79895779	    -24.57432815	    -27.47906227	      6.61259827	     14.83858091	    -37.74769630	      0.39407155	      6.79680825	     -7.98201479	      0.91180446	     -3.50240665	    -49.32524468	    -23.95007264	    -33.86716184	     39.21970426	     97.08297890	     14.42917295	     -1.89909102	     -9.99862158	    -48.26926265	    -25.62391919	     -4.30398720	     47.74280852	    122.09026206	    -24.63418554	     -8.35785957	    -14.03344908
      0.51500000	      1.17841539	      5.38617043	     85.15908254	      0.02425127	      1.28931930	      0.78881306	     23.57012510	     -1.93268995	     -9.75463344	    -23.94643564	    -20.11843789	      4.17850745	     -4.91027814	     27.28427683	     -9.49273196	    -13.78468054	    -23.60455082	    -27.13802261	      7.78630800	     15.31132785	    -38.16723157	      0.33450506	      6.72908255	     -8.42431172	      0.82127252	     -3.52938327	    -50.03446911	    -23.00907544	    -35.00262180	     38.98211628	     97.30906903	     14.28944300	     -1.68461644	     -9.55696658	    -49.52799258	    -24.95035115	     -5.48183464	     47.84190522	    122.34046258	    -23.95598617	     -8.82179685	    -14.45064529
